<?xml version="1.0" encoding="UTF-8"?>
<svg id="Layer_1" data-name="Layer 1" xmlns="http://www.w3.org/2000/svg" viewBox="0 0 841.89 227.81">
  <defs>
    <style>
      .cls-1 {
        fill: #fff;
      }
    </style>
  </defs>
  <g>
    <path class="cls-1" d="M40.97,101.37c3.73-21.14-16.17-22.74-16.17-22.74l.53-2.49h141.4l4.62,30.38h-94.15l-3.73,20.78h76.03l4.62,30.2h-85.98l-6.22,35.35H24.99l15.99-91.48Z"/>
    <path class="cls-1" d="M187.69,117.71c3.55-20.96-16.17-22.56-16.17-22.56l.36-2.49h54l-17.59,100.19h-33.93l13.32-75.14ZM196.22,50.03h37.3l-4.8,26.65h-37.3l4.8-26.65Z"/>
    <path class="cls-1" d="M286.81,71.35h4.44l-3.91,21.32h36.24l5.51,27h-46.36l-6.75,38.19c-.89,4.44,2.31,8.17,6.75,8.17h40.5l-4.8,26.82h-57.55c-13.68,0-22.92-11.19-20.43-25.05l8.53-48.14h-15.28l4.62-26.82,48.5-21.49Z"/>
    <path class="cls-1" d="M382.37,192.85c-34.46,0-56.31-23.45-50.09-58.44,6.22-34.99,36.24-58.27,70.7-58.27h65.02l4.8,30.2h-66.08c-16.88,0-32.33,10.66-35.35,28.07-3.02,17.41,8.53,28.24,25.4,28.24h66.61l-5.33,30.2h-75.67Z"/>
    <path class="cls-1" d="M492.32,84.85c3.73-20.96-15.99-22.56-15.99-22.56l.36-2.49h54l-23.45,133.05h-33.93l19.01-108Z"/>
    <path class="cls-1" d="M566.43,152.35c-1.24,7.11,3.73,12.79,10.84,12.79h36.42l12.61-72.48h33.75l-17.41,100.19h-78.52c-21.32,0-35.71-17.41-31.98-38.73l6.4-36.24c2.13-11.9,4.62-25.23,4.62-25.23h33.75l-10.48,59.69Z"/>
    <path class="cls-1" d="M764.72,92.66h-54l5.86-32.86h-33.84s-2.22,13.15-4.35,25.05l-6.43,35.71h80.33c7.1,0,11.9,5.68,10.66,12.79l-3.38,19.01c-1.24,7.11-7.99,12.79-15.1,12.79h-80.19v-.15l-4.9,27.86h88.29c21.32,0,41.57-17.41,45.3-38.73l3.91-22.2c3.91-21.49-10.66-39.26-32.15-39.26Z"/>
  </g>
  <g>
    <path class="cls-1" d="M804.7,62.46h-2.75v-2.23h8.46v2.23h-2.75v8.47h-2.95v-8.47Z"/>
    <path class="cls-1" d="M819.77,67.46c0-1.66.03-3.92.08-5.19h-.09c-.41,2.31-1.15,5.87-1.84,8.66h-2.38c-.53-2.66-1.27-6.31-1.64-8.66h-.11c.08,1.25.14,3.44.14,5.28v3.37h-2.64v-10.7h4.25c.48,1.94,1.13,5.25,1.33,6.81h.06c.25-1.69.99-4.61,1.56-6.81h4.11v10.7h-2.83v-3.47Z"/>
  </g>
</svg>